<svg version="1.1" id="Layer_1" xmlns="http://www.w3.org/2000/svg" x="0" y="0" viewBox="0 0 161 23" enable-background="new 0 0 161 23" xml:space="preserve"><path id="IHQ_logo" fill="#fff" d="M5.3 2v19c0 .7-.6 1.4-1.4 1.4h-2c-.7 0-1.4-.6-1.4-1.4V2c0-.7.6-1.4 1.4-1.4h2c.7.1 1.4.7 1.4 1.4zM80.7.7h-19c-.7 0-1.4.6-1.4 1.4v2c0 .8.6 1.4 1.4 1.4h19c.7 0 1.4-.6 1.4-1.4V2c0-.7-.6-1.3-1.4-1.3zm0 17h-19c-.7 0-1.4.6-1.4 1.4v2c0 .7.6 1.4 1.4 1.4h19c.7 0 1.4-.6 1.4-1.4v-2c0-.8-.6-1.4-1.4-1.4zM53.5.7H35.2c-.7 0-1.4.6-1.4 1.4v2c0 .8.6 1.4 1.4 1.4H42v15.7c0 .7.6 1.3 1.3 1.3h2.2c.7 0 1.3-.6 1.3-1.3V5.4h6.8c.7 0 1.4-.6 1.4-1.4V2c-.1-.7-.7-1.3-1.5-1.3zm9.6 13.6c1.5 0 2.7-1.2 2.7-2.7s-1.2-2.7-2.7-2.7c-1.5 0-2.7 1.2-2.7 2.7s1.2 2.7 2.7 2.7zm12.2-2.8c0-1.5-1.2-2.7-2.7-2.7-1.5 0-2.7 1.2-2.7 2.7s1.2 2.7 2.7 2.7c1.5.1 2.7-1.2 2.7-2.7zM23.3.7H12.1c-.7 0-1.4.6-1.4 1.4v19c0 .7.6 1.4 1.4 1.4h2c.7 0 1.4-.6 1.4-1.4V5.5h7.8c1.7 0 3.1 1.4 3.1 3.1v12.6c0 .7.6 1.4 1.3 1.4h2c.7 0 1.4-.6 1.4-1.4V8.6c0-4.4-3.5-7.9-7.8-7.9zm107.1 0H112c-.7 0-1.4.6-1.4 1.4v2c0 .8.6 1.4 1.4 1.4h6.8v15.7c0 .7.6 1.3 1.3 1.3h2.2c.7 0 1.3-.6 1.3-1.3V5.4h6.8c.8 0 1.4-.6 1.4-1.4V2c-.1-.7-.7-1.3-1.4-1.3zm-30.3 0H88.9c-.7 0-1.4.6-1.4 1.4v19c0 .7.6 1.4 1.4 1.4h2c.8 0 1.4-.6 1.4-1.4V5.5h7.8c1.7 0 3.1 1.4 3.1 3.1v12.6c0 .7.6 1.4 1.3 1.4h2c.7 0 1.4-.6 1.4-1.4V8.6c.1-4.4-3.4-7.9-7.8-7.9zm45.5 0h-1.5c-.2 0-.4.2-.4.4V5h-5V1.1c0-.2-.2-.4-.4-.4h-1.5c-.2 0-.4.2-.4.4v10.1c0 .2.2.4.4.4h1.5c.2 0 .4-.2.4-.4v-4h5v3.9c0 .2.2.4.4.4h1.5c.2 0 .4-.2.4-.4v-10c0-.3-.2-.4-.4-.4zm14.8 11.1l-1 1c-.2.2-.4.2-.6 0l-2.1-2.1c-.9.6-1.9.9-3 .9-3.1 0-5.5-2.5-5.5-5.5s2.5-5.5 5.5-5.5 5.5 2.5 5.5 5.5c0 1.1-.3 2.2-.9 3l2.1 2.1c.1.2.1.4 0 .6zm-3.5-5.7c0-1.8-1.5-3.3-3.3-3.3-1.8 0-3.3 1.5-3.3 3.3 0 1.8 1.5 3.3 3.3 3.3 1.9 0 3.3-1.5 3.3-3.3z"/></svg>